Coordinates
version=1
nRows=15
nColumns=19
inDegrees=yes

Units are S.I. units (second, meters, Newtons, ...)
If the header above contains a line with 'inDegrees', this indicates whether rotational values are in degrees (yes) or radians (no).

endheader
time	pelvis_tilt	pelvis_list	pelvis_rotation	pelvis_tx	pelvis_ty	pelvis_tz	hip_flexion_r	hip_adduction_r	hip_rotation_r	knee_angle_r	knee_angle_r_beta	ankle_angle_r	hip_flexion_l	hip_adduction_l	hip_rotation_l	knee_angle_l	knee_angle_l_beta	ankle_angle_l
     17.20000000	     -1.47031898	      7.88410491	      8.56261119	      2.07764193	      0.97593551	      0.98776185	    -16.76249009	    -11.54246460	    -20.36581130	     76.98586800	      1.34365687	    -17.53203183	     26.47189127	     13.56367825	     -4.07620420	     11.94358572	      0.20845490	     -5.84353185
     17.20666667	     -1.10181014	      8.75130149	      8.85152422	      2.07602076	      0.97194118	      0.98724873	    -15.34480314	    -12.67224275	    -19.86946242	     81.47246669	      1.42196279	    -17.32130065	     26.19444835	     14.11856063	     -5.78944141	     14.87612615	      0.25963738	     -5.11813836
     17.21333333	     -0.93001239	      9.57320983	      9.21242468	      2.07418368	      0.96748946	      0.98678674	    -13.61146514	    -13.76986628	    -19.33307883	     85.86092977	      1.49855592	    -17.10313583	     26.21410074	     14.61087843	     -7.29018530	     18.21864325	      0.31797531	     -3.83662839
     17.22000000	     -0.95736240	     10.22176492	      9.60297345	      2.07212156	      0.96279070	      0.98640287	    -11.48241172	    -14.67698477	    -18.63023075	     90.10841272	      1.57268849	    -16.80979733	     26.51611661	     14.91350664	     -8.53005188	     21.87361330	      0.38176657	     -2.00915262
     17.22666667	     -1.05772057	     10.77120126	     10.00027143	      2.06986277	      0.95806884	      0.98608212	     -9.13184111	    -15.50299244	    -17.83901358	     94.16986148	      1.64357414	    -16.50303320	     26.87628730	     15.13971567	     -9.39254228	     25.63779111	      0.44746387	      0.31838604
     17.23333333	     -1.36434148	     11.19024824	     10.45651886	      2.06741954	      0.95327963	      0.98568744	     -6.41357994	    -16.25637934	    -16.98468723	     98.04167686	      1.71115007	    -16.10086766	     27.39302132	     15.34604824	     -9.80178981	     29.39123351	      0.51297380	      3.01651654
     17.24000000	     -1.72560708	     11.45112056	     10.89461889	      2.06484869	      0.94874459	      0.98526948	     -3.45927319	    -16.88847556	    -16.02667086	    101.64792086	      1.77409090	    -15.75482063	     27.87119467	     15.46532865	     -9.87685070	     33.03014671	      0.57648481	      5.96547030
     17.24666667	     -2.16731181	     11.57165971	     11.31096943	      2.06214161	      0.94454663	      0.98482993	     -0.24110194	    -17.43244714	    -14.98607275	    104.97706898	      1.83219549	    -15.33210330	     28.27602637	     15.53517211	     -9.63598401	     36.41293666	      0.63552564	      9.04963983
     17.25333333	     -2.64710180	     11.55179022	     11.65546162	      2.05937542	      0.94081400	      0.98440847	      3.21309900	    -17.84805821	    -13.81843687	    107.98837459	      1.88475269	    -14.89084644	     28.51819956	     15.52484679	     -9.16178514	     39.43573973	      0.68828350	     12.12267320
     17.26000000	     -3.12502692	     11.42432938	     11.89957697	      2.05658053	      0.93765844	      0.98407329	      6.85210487	    -18.15127254	    -12.54137555	    110.65290145	      1.93125746	    -14.41676368	     28.51828814	     15.42254243	     -8.54902036	     42.02234409	      0.73342826	     15.04116444
     17.26666667	     -3.59799106	     11.16765309	     12.03782015	      2.05384428	      0.93504830	      0.98380992	     10.64897789	    -18.27989876	    -11.17921606	    112.94093741	      1.97119122	    -13.95368657	     28.25866374	     15.17635061	     -7.85439694	     44.14994003	      0.77056182	     17.72494539
     17.27333333	     -3.95572959	     10.82687209	     12.05200443	      2.05123020	      0.93316722	      0.98369601	     14.43070401	    -18.24404248	     -9.80186034	    114.80535200	      2.00373139	    -13.46600019	     27.60083650	     14.78123610	     -7.13174579	     45.78381091	      0.79907824	     20.14012545
     17.28000000	     -4.25291412	     10.40981386	     11.94999019	      2.04878817	      0.93194892	      0.98366049	     18.20317496	    -18.03199178	     -8.43454433	    116.23663555	      2.02871200	    -12.94230220	     26.60199418	     14.25414102	     -6.41222397	     46.89707545	      0.81850838	     22.19185611
     17.28666667	     -4.03164013	     10.08078756	     11.74250985	      2.04674661	      0.93195242	      0.98366799	     21.27443750	    -17.81771509	     -7.25925167	    117.14609645	      2.04458509	    -12.33824243	     24.69958826	     13.69050746	     -5.68632777	     47.45178719	      0.82818992	     24.01359715
     17.29333333	     -4.39317570	      9.48712190	     11.39690006	      2.04481899	      0.93170943	      0.98375427	     25.13841891	    -17.22254709	     -5.95745155	    117.74109244	      2.05496973	    -11.77515816	     23.29792522	     12.85526054	     -5.18350309	     47.65151970	      0.83167591	     25.24316042
